<?xml version="1.0" encoding="UTF-8" standalone="no"?>
<!-- Created with Inkscape (http://www.inkscape.org/) -->

<svg
   version="1.1"
   id="svg2"
   width="524.67"
   height="392.99"
   viewBox="0 0 4000 2666.6667"
   sodipodi:docname="10973.eps"
   xmlns:inkscape="http://www.inkscape.org/namespaces/inkscape"
   xmlns:sodipodi="http://sodipodi.sourceforge.net/DTD/sodipodi-0.dtd"
   xmlns="http://www.w3.org/2000/svg"
   xmlns:svg="http://www.w3.org/2000/svg">
  <defs
     id="defs6" />
  <sodipodi:namedview
     id="namedview4"
     pagecolor="#ffffff"
     bordercolor="#000000"
     borderopacity="0.25"
     inkscape:showpageshadow="2"
     inkscape:pageopacity="0.0"
     inkscape:pagecheckerboard="0"
     inkscape:deskcolor="#d1d1d1" />
  <g
     id="g8"
     inkscape:groupmode="layer"
     inkscape:label="ink_ext_XXXXXX"
     transform="matrix(1.3333333,0,0,-1.3333333,0,2666.6667)">
    <g
       id="g10"
       transform="scale(0.1)">
      <path
         d="M 0,0 H 30000 V 20000 H 0 Z"
         style="fill:#ffffff;fill-opacity:1;fill-rule:nonzero;stroke:none"
         id="path12" />
      <path
         d="m 2677.66,3443.9 c 0,0 -1866.98,1281.8 -565.16,4345.7 767.48,1806.4 3356.48,1529 3225.49,4773.3 -130.98,3244.4 3713.56,5916 9239.41,4094.4 1801.3,-593.8 2648.4,-1476.8 4026.4,-997.2 2669.5,929.1 6319.9,546 6435.3,-2434.2 183,-4728.6 2900,-2618.6 3122.1,-6068.2 75.7,-1175.5 -94,-2385.3 -1486.8,-3713.8 H 2677.66"
         style="fill:#ebf3fa;fill-opacity:1;fill-rule:nonzero;stroke:none"
         id="path14" />
      <path
         d="m 16253.2,11943.9 c 0,0 -46.7,96 -121.9,116.7 -75.3,20.8 -93.4,-67.4 -49.3,-147.9 44.1,-80.4 171.2,-134.9 171.2,-134.9 0,0 13.3,142.9 0,166.1"
         style="fill:#ffb27d;fill-opacity:1;fill-rule:nonzero;stroke:none"
         id="path16" />
      <path
         d="m 20161.7,10565.6 h 2386.6 c 142.7,0 258.3,115.7 258.3,258.4 v 2951.6 c 0,142.6 -115.6,258.3 -258.3,258.3 h -2386.6 c -142.7,0 -258.4,-115.7 -258.4,-258.3 V 10824 c 0,-142.7 115.7,-258.4 258.4,-258.4"
         style="fill:#abddda;fill-opacity:1;fill-rule:nonzero;stroke:none"
         id="path18" />
      <path
         d="m 21047.3,13946.8 h 615.4 v 173.8 c 0,77.8 -63.1,140.9 -140.9,140.9 h -337.6 c -75.6,0 -136.9,-61.3 -136.9,-137 v -177.7"
         style="fill:#abddda;fill-opacity:1;fill-rule:nonzero;stroke:none"
         id="path20" />
      <path
         d="m 21311.3,10260.6 h 87.4 c 81.4,0 147.4,66 147.4,147.5 v 245.8 c 0,81.5 -66,147.5 -147.4,147.5 h -87.4 c -81.5,0 -147.5,-66 -147.5,-147.5 v -245.8 c 0,-81.5 66,-147.5 147.5,-147.5"
         style="fill:#abddda;fill-opacity:1;fill-rule:nonzero;stroke:none"
         id="path22" />
      <path
         d="m 22709,12993.4 v -2086 c 0,-134 -108.6,-242.7 -242.7,-242.7 h -945.4 c -30.9,0 -56,-25 -56,-56 v -173.3 c 0,-57.6 -46.7,-104.3 -104.3,-104.3 h -11.3 c -57.5,0 -104.2,46.7 -104.2,104.3 v 181.2 c 0,26.6 -21.6,48.1 -48.2,48.1 h -953.2 c -134.1,0 -242.7,108.7 -242.7,242.7 v 2059.8 c 156,33.7 645.2,106.9 1354,-96.3 561.9,-161.2 1067.3,-6.7 1354,122.5"
         style="fill:#e85d52;fill-opacity:1;fill-rule:nonzero;stroke:none"
         id="path24" />
      <path
         d="m 21667.6,11789.7 c 0,172.7 -312.6,562.3 -312.6,562.3 0,0 -312.6,-389.6 -312.6,-562.3 0,-172.6 139.9,-312.6 312.6,-312.6 172.6,0 312.6,140 312.6,312.6"
         style="fill:#f48c87;fill-opacity:1;fill-rule:nonzero;stroke:none"
         id="path26" />
      <path
         d="M 21082.3,9843.1 H 20316 v -72.6 h 766.3 c 167.2,0 303.3,136.1 303.3,303.3 v 257.4 h -72.6 v -257.4 c 0,-127.2 -103.4,-230.7 -230.7,-230.7"
         style="fill:#abddda;fill-opacity:1;fill-rule:nonzero;stroke:none"
         id="path28" />
      <path
         d="M 21082.3,9817.6 H 20316 v -21.7 h 766.3 c 153.2,0 277.9,124.7 277.9,277.9 v 257.4 h -21.7 v -257.4 c 0,-141.2 -114.9,-256.2 -256.2,-256.2"
         style="fill:#d14842;fill-opacity:1;fill-rule:nonzero;stroke:none"
         id="path30" />
      <path
         d="m 7009.14,12170.1 c 114.85,-126.9 352.7,-370.3 628.64,-541.7 l -351.02,-322.1 c 0,0 -515.42,242.5 -669.75,611.9 -33.28,79.7 0.48,171.6 77.16,211.2 l 139.6,72.2 c 58.93,30.5 130.85,17.6 175.37,-31.5"
         style="fill:#ea7147;fill-opacity:1;fill-rule:nonzero;stroke:none"
         id="path32" />
      <path
         d="m 10146.7,11712.7 c 0,0 47.2,838.2 -1076.7,794.2 -1123.93,-43.9 -1432.22,-878.5 -1432.22,-878.5 l 2508.92,84.3"
         style="fill:#ff8c5a;fill-opacity:1;fill-rule:nonzero;stroke:none"
         id="path34" />
      <path
         d="m 8698.55,11723.8 c 0,0 -522.9,1599.4 -1657.84,1766.8 -72.19,10.6 -144.03,-22.1 -184.58,-82.8 l -122.26,-183 c -70.53,-105.5 -25.73,-249.6 92.67,-295.4 311.15,-120.1 845.19,-478 1200.06,-1542.6 l 671.95,337"
         style="fill:#ea7147;fill-opacity:1;fill-rule:nonzero;stroke:none"
         id="path36" />
      <path
         d="m 9982,11663.1 c 0,0 426,1303 1350.3,1447.5 64.4,10 128.7,-18.9 164.9,-73.1 l 78.4,-117.3 c 66,-98.7 25.5,-232.8 -83.9,-278.6 -258,-108 -677.1,-410.1 -958.7,-1254.8 l -551,276.3"
         style="fill:#ea7147;fill-opacity:1;fill-rule:nonzero;stroke:none"
         id="path38" />
      <path
         d="m 11042.2,10357.1 c -23.2,-1397 -786,-3080.7 -1585.96,-3080.7 -81.32,0 -212.1,-13.7 -290.62,0 -1677.89,291.1 -2642.18,3586.3 -1718.96,4414.4 762.99,684.3 1618.54,396.9 1618.54,396.9 1141.9,337.8 1709.7,-167.1 1901,-960.4 21.9,-90.6 38.8,-185.1 51.2,-282.5 5.3,-42.3 9.8,-85.1 13.4,-128.4 9.8,-116.6 13.5,-236.8 11.4,-359.3"
         style="fill:#f78248;fill-opacity:1;fill-rule:nonzero;stroke:none"
         id="path40" />
      <path
         d="m 9065.2,12087.7 c 0,0 -522.45,342.4 -1104.49,166.7 -582.03,-175.8 -786.02,-1022.8 -786.02,-1022.8 0,0 138.1,-218.2 544.42,254 406.33,472.2 1346.09,602.1 1346.09,602.1"
         style="fill:#ea642f;fill-opacity:1;fill-rule:nonzero;stroke:none"
         id="path42" />
      <path
         d="m 7541.7,11306.3 c 0,0 350.74,209.3 526.44,0.6 175.71,-208.6 54.91,-1076.2 395.35,-1526.5 340.44,-450.2 428.29,-593 439.27,-922.4 0,0 24.96,491.6 -307.49,948.1 -332.45,456.5 -270.34,1455.3 -344.1,1661.9 -73.75,206.6 169.2,453.2 169.2,453.2 0,0 -300.98,-62.4 -498.65,-166.3 -197.67,-103.9 -380.02,-448.6 -380.02,-448.6"
         style="fill:#ea642f;fill-opacity:1;fill-rule:nonzero;stroke:none"
         id="path44" />
      <path
         d="m 7899.76,9088.6 c -25.17,-30.4 444.99,712.3 375.61,1120.7 l 91.33,-125 c 0,0 30.9,-395.4 -466.94,-995.7"
         style="fill:#ea642f;fill-opacity:1;fill-rule:nonzero;stroke:none"
         id="path46" />
      <path
         d="m 8251.17,11109.2 c 0,0 168.39,-162 578.38,-205.5 409.99,-43.4 614.98,-204.4 688.19,-511.9 0,0 -115.31,404.5 -565.56,404.5 -450.26,0 -701.01,164.7 -701.01,164.7 v 148.2"
         style="fill:#ea642f;fill-opacity:1;fill-rule:nonzero;stroke:none"
         id="path48" />
      <path
         d="m 10610.7,11509.1 c 0,0 -259.2,432 -543.6,456.1 -284.46,24.1 -395.33,-28.9 -366.41,-154.3 28.92,-125.3 254.58,-84.1 411.71,-213.2 157.1,-129 564.8,-322.9 498.3,-88.6"
         style="fill:#ff996c;fill-opacity:1;fill-rule:nonzero;stroke:none"
         id="path50" />
      <path
         d="M 20404,3475.6 H 9999.07 c -71.08,0 -129.24,58.2 -129.24,129.3 V 9544 c 0,71 58.16,129.2 129.24,129.2 H 20404 c 71.1,0 129.3,-58.2 129.3,-129.2 V 3604.9 c 0,-71.1 -58.2,-129.3 -129.3,-129.3"
         style="fill:#e85d52;fill-opacity:1;fill-rule:nonzero;stroke:none"
         id="path52" />
      <path
         d="M 20943.9,10174.4 V 7625.7 c 0,-53.8 -36.7,-97.8 -81.6,-97.8 H 9540.66 c -44.83,0 -81.46,44 -81.46,97.8 v 2548.7 c 0,53.7 36.63,97.7 81.46,97.7 H 20862.3 c 44.9,0 81.6,-44 81.6,-97.7"
         style="fill:#ffeddc;fill-opacity:1;fill-rule:nonzero;stroke:none"
         id="path54" />
      <path
         d="m 13176.8,10267.8 h -1708.4 v 274.7 c 0,108.8 88.2,196.9 197,196.9 h 1314.5 c 108.7,0 196.9,-88.1 196.9,-196.9 v -274.7"
         style="fill:#c64c46;fill-opacity:1;fill-rule:nonzero;stroke:none"
         id="path56" />
      <path
         d="m 18818.8,10267.8 h -1383 v 294.4 c 0,97.9 79.4,177.2 177.3,177.2 h 1028.5 c 97.9,0 177.2,-79.3 177.2,-177.2 v -294.4"
         style="fill:#c64c46;fill-opacity:1;fill-rule:nonzero;stroke:none"
         id="path58" />
      <path
         d="M 16713.7,7527.9 H 9540.66 c -44.83,0 -81.46,44 -81.46,97.8 v 2548.7 c 0,53.7 36.63,97.7 81.46,97.7 h 1503.04 l 103.9,-14 c 0,0 810.9,-2390.4 5566.1,-2730.2"
         style="fill:#f9ddc5;fill-opacity:1;fill-rule:nonzero;stroke:none"
         id="path60" />
      <path
         d="m 13325.6,6601.5 h 139.3 V 6351 h 256.8 v 250.5 h 139.3 v -633 h -139.3 v 254.1 h -256.8 v -254.1 h -139.3 v 633"
         style="fill:#f9ddc5;fill-opacity:1;fill-rule:nonzero;stroke:none"
         id="path62" />
      <path
         d="m 14002.9,6239.8 v 361.7 h 139.3 v -358.1 c 0,-103.1 51.5,-156.4 136.5,-156.4 85,0 136.6,51.5 136.6,151.9 v 362.6 h 139.2 v -357.2 c 0,-191.7 -107.6,-285.7 -277.6,-285.7 -170,0 -274,94.9 -274,281.2"
         style="fill:#f9ddc5;fill-opacity:1;fill-rule:nonzero;stroke:none"
         id="path64" />
      <path
         d="m 14696.5,6601.5 h 150.1 l 166.4,-267.7 166.4,267.7 h 150.1 v -633 h -138.3 v 413.3 L 15013,6111.4 h -3.6 l -176.3,267.7 v -410.6 h -136.6 v 633"
         style="fill:#f9ddc5;fill-opacity:1;fill-rule:nonzero;stroke:none"
         id="path66" />
      <path
         d="m 15844.9,6233.5 -84.1,205.2 -84,-205.2 z m -146.4,372.5 h 128.4 l 271.2,-637.5 h -145.6 l -57.8,142 H 15627 l -57.8,-142 h -142 l 271.3,637.5"
         style="fill:#f9ddc5;fill-opacity:1;fill-rule:nonzero;stroke:none"
         id="path68" />
      <path
         d="m 16195.8,6601.5 h 128.4 l 296.6,-389.7 v 389.7 h 137.5 v -633 h -118.5 l -306.5,402.4 v -402.4 h -137.5 v 633"
         style="fill:#f9ddc5;fill-opacity:1;fill-rule:nonzero;stroke:none"
         id="path70" />
      <path
         d="m 13851,5364.3 c 0,108.5 -79.6,198.9 -191.7,198.9 -112.1,0 -189.9,-88.6 -189.9,-198.9 0,-108.5 79.6,-199 191.7,-199 112.2,0 189.9,88.6 189.9,199 z m -527.2,0 c 0,179.9 142,327.3 337.3,327.3 195.3,0 335.5,-145.6 335.5,-327.3 0,-180 -142,-327.4 -337.3,-327.4 -195.3,0 -335.5,145.6 -335.5,327.4"
         style="fill:#f9ddc5;fill-opacity:1;fill-rule:nonzero;stroke:none"
         id="path72" />
      <path
         d="m 14400.8,5373.3 c 67.8,0 106.7,36.2 106.7,91.3 0,59.7 -41.6,90.5 -109.4,90.5 h -138.3 v -181.8 z m -280.3,307.4 h 289.4 c 80.4,0 142.8,-22.5 184.4,-64.2 35.3,-35.2 54.3,-84.9 54.3,-146.4 0,-102.2 -55.2,-166.4 -135.7,-196.3 l 154.7,-226 h -162.8 l -137.4,202.5 h -107.6 v -202.5 h -139.3 v 632.9"
         style="fill:#f9ddc5;fill-opacity:1;fill-rule:nonzero;stroke:none"
         id="path74" />
      <path
         d="m 14746.3,5364.3 c 0,179.9 140.1,327.3 331.8,327.3 114,0 182.7,-30.7 248.7,-86.8 l -87.7,-105.8 c -48.9,40.7 -92.3,64.2 -165.5,64.2 -101.3,0 -181.8,-89.5 -181.8,-198.9 0,-115.8 79.6,-200.8 191.7,-200.8 50.7,0 95.9,12.7 131.2,38 v 90.4 h -140.2 v 120.3 h 274.9 v -274.9 c -65.1,-55.2 -154.6,-100.4 -270.4,-100.4 -197.1,0 -332.7,138.4 -332.7,327.4"
         style="fill:#f9ddc5;fill-opacity:1;fill-rule:nonzero;stroke:none"
         id="path76" />
      <path
         d="m 15846.7,5312.7 -84,205.3 -84.1,-205.3 z m -146.4,372.6 h 128.4 l 271.2,-637.5 h -145.5 l -57.9,141.9 h -267.7 l -57.8,-141.9 h -142 l 271.3,637.5"
         style="fill:#f9ddc5;fill-opacity:1;fill-rule:nonzero;stroke:none"
         id="path78" />
      <path
         d="m 16197.6,5680.7 h 128.4 l 296.6,-389.7 v 389.7 h 137.5 v -632.9 h -118.5 l -306.5,402.4 v -402.4 h -137.5 v 632.9"
         style="fill:#f9ddc5;fill-opacity:1;fill-rule:nonzero;stroke:none"
         id="path80" />
      <path
         d="m 8999.13,8972.3 c 0,0 -678.81,-49.7 -1331.51,0 -652.71,49.6 -1546.48,69.8 -1357.63,-172.3 188.85,-242.1 261.08,-2284.4 261.08,-2284.4 0,0 776.72,-1.2 1285.83,446.5 509.11,447.7 1814.49,2032.2 1142.23,2010.2"
         style="fill:#d64949;fill-opacity:1;fill-rule:nonzero;stroke:none"
         id="path82" />
      <path
         d="m 6309.99,8800 c 0,0 -1462.05,456.9 -2297.52,-117.5 -835.45,-574.4 -496.05,-2663 -443.83,-3289.6 52.22,-626.6 906.06,-548.3 1314.6,0 408.53,548.3 1244,939.9 1687.84,1122.7 443.83,182.7 59.05,2205 -261.09,2284.4"
         style="fill:#e5605a;fill-opacity:1;fill-rule:nonzero;stroke:none"
         id="path84" />
      <path
         d="m 21675,8775.8 c 0,0 381.5,-3399.4 -203.5,-3848 -585.1,-448.5 -1423,-584 -1852.1,-876.5 -429,-292.5 -1287.1,-604.6 -1189.6,409.5 97.5,1014.1 1267.6,3900.4 2125.7,4407.4 858.1,507.1 1119.5,-92.4 1119.5,-92.4"
         style="fill:#f78248;fill-opacity:1;fill-rule:nonzero;stroke:none"
         id="path86" />
      <path
         d="m 22676.7,8775.8 c 0,0 -381.6,-3399.4 203.4,-3848 585.1,-448.5 1423.1,-584 1852.1,-876.5 429,-292.5 1287.1,-604.6 1189.6,409.5 -97.5,1014.1 -1267.6,3900.4 -2125.7,4407.4 -858.1,507.1 -1119.4,-92.4 -1119.4,-92.4"
         style="fill:#f78248;fill-opacity:1;fill-rule:nonzero;stroke:none"
         id="path88" />
      <path
         d="m 19457.5,4976.4 v 0 c 3.1,7.1 50.2,206.5 212.7,415.5 150,193 343.4,467.7 704.8,635.9 148,68.9 280.1,176.7 392.6,320.5 91.1,116.3 169.7,256.4 233.6,416.2 109.8,274.5 138.3,514.7 138.6,517.1 l 143.9,85.4 c -1.2,-10.2 -74.8,-350.5 -189,-637.1 -67.4,-169 -150.7,-317.7 -247.7,-441.9 -122.5,-156.8 -267.1,-274.8 -429.9,-350.5 -657.8,-306.2 -956.7,-954.6 -959.6,-961.1"
         style="fill:#ea642f;fill-opacity:1;fill-rule:nonzero;stroke:none"
         id="path90" />
      <path
         d="m 21238.6,5625.7 v 0 c 55.1,400.8 -303.1,936.6 -305.7,941.8 l 89,44.8 c 2.8,-5.6 69.9,-139.6 130.6,-327.8 82.2,-254.9 111.2,-476.6 86.1,-658.8"
         style="fill:#ea642f;fill-opacity:1;fill-rule:nonzero;stroke:none"
         id="path92" />
      <path
         d="m 23431.1,7282.3 c -10.3,8.2 -20.5,16.5 -30.7,24.8 -128.9,105.1 -247,214.1 -329.7,291.3 -40.2,37.5 -78.1,78.4 -113.9,122 -30.9,37.7 -60.3,77.4 -88.1,118.5 -97.2,143.5 -175.4,304.2 -237.6,458.3 -122.3,303.1 -182.5,580.9 -202.9,653.6 v 842.6 c 0,139.3 -113.8,251.8 -253.1,250.4 -9.9,-0.1 -19.8,-0.3 -29.6,-0.4 -123.2,-1.7 -222.1,-102.1 -222.1,-225.4 v -867.3 c -20.5,-72.9 -80.7,-350.6 -202.9,-653.5 -62.2,-154.1 -140.4,-314.8 -237.6,-458.3 -27.8,-41.1 -57.2,-80.8 -88.2,-118.5 -35.7,-43.6 -73.6,-84.5 -113.8,-122 -82.7,-77.2 -200.8,-186.2 -329.7,-291.3 -10.2,-8.3 -20.4,-16.6 -30.7,-24.8 -19.1,-15.2 -38.4,-30.4 -57.8,-45.2 -162.5,-124.3 -333.1,-230.5 -466.7,-252.5 260.7,42.9 508.1,129.9 738.3,259.4 48,27 95.2,55.9 141.7,86.6 27.2,18 54.2,36.6 80.9,55.8 143,103.1 278.1,224.2 403.7,361.6 75.3,82.5 147.3,170.9 215.6,264.9 77.7,107.1 144,212.3 199.6,309.9 55.6,-97.6 122,-202.8 199.6,-309.9 68.3,-94 140.3,-182.4 215.7,-264.9 125.5,-137.4 260.6,-258.5 403.6,-361.6 26.7,-19.2 53.7,-37.9 81,-55.9 46.5,-30.6 93.6,-59.5 141.6,-86.5 77.1,-43.3 156,-81.9 236.8,-115.7 160.5,-67.1 328.1,-115.2 501.5,-143.7 -149.6,24.6 -345.5,154.7 -524.5,297.7"
         style="fill:#ea642f;fill-opacity:1;fill-rule:nonzero;stroke:none"
         id="path94" />
      <path
         d="m 23932.4,5338.3 c 0,0 -24.2,604 -348.4,1010 -92.2,115.4 -169.7,256.4 -233.6,416.2 -109.8,274.5 -138.3,514.7 -138.5,517.1 L 23068,7367 c 1.1,-10.2 74.7,-350.5 188.9,-637.1 67.4,-169 147.4,-320.4 247.7,-441.9 262.5,-317.7 427.8,-949.7 427.8,-949.7"
         style="fill:#ea642f;fill-opacity:1;fill-rule:nonzero;stroke:none"
         id="path96" />
      <path
         d="m 23113,5625.7 v 0 c -55.1,400.8 303.1,936.6 305.8,941.8 l -89.1,44.8 c -2.8,-5.6 -69.8,-139.6 -130.5,-327.8 -82.2,-254.9 -111.2,-476.6 -86.2,-658.8"
         style="fill:#ea642f;fill-opacity:1;fill-rule:nonzero;stroke:none"
         id="path98" />
      <path
         d="m 25473,3475.6 h -338.9 c 2.5,17.8 11.1,71.9 27,121.7 5.5,17.3 11.9,34.2 19.2,48.8 33,65.8 242.3,24 242.3,24 0,0 19.5,-16.7 34.7,-80.3 6.7,-28.1 12.6,-65.3 15.7,-114.2"
         style="fill:#233862;fill-opacity:1;fill-rule:nonzero;stroke:none"
         id="path100" />
      <path
         d="m 24850.8,8652.5 c 0,0 -270,-47.4 -331.1,-206.8 -61.1,-159.4 -406,-2734.3 -406,-2734.3 0,0 170.8,-135.3 537.5,-86.8 366.6,48.6 199.6,3027.9 199.6,3027.9"
         style="fill:#aec3ff;fill-opacity:1;fill-rule:nonzero;stroke:none"
         id="path102" />
      <path
         d="m 24448.8,3582.6 c -0.9,-46.1 -6.7,-89.7 -23.4,-107 H 23755 c 8.5,24.3 32.7,60.8 101.5,71.9 78.2,12.7 200.1,50.3 271.2,125.6 25.4,26.7 44.3,58.2 52.6,95.1 31.5,140.4 260.8,-43 260.8,-43 0,0 9.2,-74 7.7,-142.6"
         style="fill:#1c3154;fill-opacity:1;fill-rule:nonzero;stroke:none"
         id="path104" />
      <path
         d="m 24160.1,3650.9 c 75,-23.9 218.1,-96.9 309.1,-62.6 58.8,22.2 387.4,972.7 408.7,1388.4 1.5,30.2 7.5,72.4 16.8,123.8 19.5,107.3 53.5,254.7 92.7,417.4 105.1,435.9 247.4,981.3 244.3,1155.6 -4.8,270.5 -806.2,56.7 -806.2,56.7 0,0 -55.2,-221.9 -66.2,-543.2 -21.7,-637.8 -81.6,-1715 -244.3,-2463.2 -6.9,-31.7 14.1,-63.1 45.1,-72.9"
         style="fill:#233862;fill-opacity:1;fill-rule:nonzero;stroke:none"
         id="path106" />
      <path
         d="m 24716.4,6672.5 423.7,-3070.7 c 0,0 186,-44.9 330.7,-9 0,0 124.1,1633.2 113.8,2028 -10.4,394.9 89,1056.5 -22.7,1129.5 -111.7,73 -845.5,-77.8 -845.5,-77.8"
         style="fill:#2b478b;fill-opacity:1;fill-rule:nonzero;stroke:none"
         id="path108" />
      <path
         d="m 25615.4,8511.9 c 0,0 -445.2,287.9 -764.6,140.6 -50.9,-23.4 -108.9,-88.9 -150.5,-134.7 -115.4,-127.2 -341,-2147.8 -341,-2147.8 0,0 640.3,-216.9 1256.1,73.6 v 2068.3"
         style="fill:#ffffff;fill-opacity:1;fill-rule:nonzero;stroke:none"
         id="path110" />
      <path
         d="m 24825.5,8659.8 c 0,0 -450.8,-184.7 -511.8,-326.6 -61.1,-142 -313.1,-895.7 -261.8,-1063.6 29.9,-97.7 327.5,-200 403.4,89.8 36.6,139.7 202,557.4 284.1,823.4 l 86.1,477"
         style="fill:#aec3ff;fill-opacity:1;fill-rule:nonzero;stroke:none"
         id="path112" />
      <path
         d="m 24919.1,8519.1 c 98.4,-19.3 243,1.3 348.8,71 -47.8,114.1 -67.4,204.2 -74.4,262.5 -0.4,3.2 -0.7,6.1 -1,9.1 -3.1,30.2 -2.7,50.7 -1.2,60.1 h -254.4 c 0,0 -69.5,-31.8 -69.5,-53.8 0,-11.7 -0.1,-23 -0.3,-33.7 -0.6,-29.3 -1.7,-54.8 -3.3,-76.8 -4.8,-71.3 -13,-105 -13,-105 0,0 -31.1,-113.9 68.3,-133.4"
         style="fill:#ffb27d;fill-opacity:1;fill-rule:nonzero;stroke:none"
         id="path114" />
      <path
         d="m 24863.8,8757.5 c 192.8,-37.2 304.7,68.1 329.7,95.1 3.6,3.9 5.4,6.2 5.4,6.2 -2,1 -4.1,1.9 -6.4,2.9 -71.7,29 -234.5,5.9 -325.4,-27.4 -0.6,-29.3 -1.7,-54.8 -3.3,-76.8"
         style="fill:#e2915a;fill-opacity:1;fill-rule:nonzero;stroke:none"
         id="path116" />
      <path
         d="m 25256.5,8963.6 c -34.4,-185.3 -273.6,-179.3 -377,-167.6 -29.1,3.2 -47.4,6.9 -47.4,6.9 -32.8,8.8 -51.1,60.5 -59.6,128.1 -16.8,133.9 4.5,330.5 27.1,380.8 34,75.7 98.2,157.5 339,98.4 240.9,-59 162.1,-209.1 117.9,-446.6"
         style="fill:#ffb27d;fill-opacity:1;fill-rule:nonzero;stroke:none"
         id="path118" />
      <path
         d="m 24790.6,9415.2 c 32.9,45.6 102.7,101.3 166.1,135.6 136.2,73.6 310.5,-2.4 311.3,-2.7 196.7,-86.5 248.1,-237 143.8,-471.5 -110.3,-247.9 -215.3,-220 -215.3,-220 0,0 22.3,13.9 20.2,91.1 -0.1,4.4 -0.2,8.1 -0.4,11.3 -1.1,15.8 4.5,31.7 16.4,42.2 24.4,21.8 36.3,87.8 15.8,106.2 -24.6,22.1 -59.3,-4.8 -70.4,-25.5 -9.7,-14.6 -27,-19.7 -43.2,-9.5 -61.2,38.7 -21.4,116.1 -80,163.5 -58.5,47.4 -177.2,7.6 -265,45.3 -114.9,42.8 -24.1,99.6 0.7,134"
         style="fill:#233862;fill-opacity:1;fill-rule:nonzero;stroke:none"
         id="path120" />
      <path
         d="m 24763.2,5522.2 c 38.8,-10 77.2,-18.1 115.3,-24.5 33.7,-5.7 67.3,-10 101,-12.8 190.5,-16.6 381.9,10.2 605.6,74.4 50.4,14.4 102.4,30.8 156.5,49 5.7,1.9 -14.7,593.5 -38.3,1203.7 -2.4,63 -4.9,126.2 -7.4,189 -1,26.6 -2,53.1 -3.1,79.5 -21.4,539.6 -42.6,1027 -47.1,1053.3 -10.3,59.3 -19.8,110 -30.3,153.8 -30.4,127.9 -68.3,198 -150.8,258.3 -8,6.1 -74,39.4 -132.2,68.3 -48.3,24 -91.1,44.9 -91.1,44.9 h -0.1 c -19.1,-9.4 -42.2,-53.4 -66.3,-115.1 -44.3,-113.8 -92.2,-288 -125.4,-418.1 l -0.2,-0.6 v -0.1 c -21.4,-84 -36.8,-149.4 -41.1,-168.2 -7.5,-31.7 -17.3,-93 -28.8,-176.2 -15.7,-113.2 -34.4,-266.9 -54.2,-441.3 -2.1,-17.9 -4.1,-36 -6.1,-54.4 -2.4,-20.9 -4.8,-42 -7.1,-63.4 -0.8,-6.9 -1.5,-13.7 -2.3,-20.6 -7.6,-69 -15.3,-140.3 -22.9,-212.8 -6.4,-59.9 -97.2,-103.2 -103.4,-164.1 -3.7,-35.7 -11.2,-365.7 -20.9,-471.1 -7,-75.2 -2,-795.5 0.7,-830.9"
         style="fill:#aec3ff;fill-opacity:1;fill-rule:nonzero;stroke:none"
         id="path122" />
      <path
         d="m 25420.4,7916.2 c 0.2,-1.2 15.4,-545.7 -394.2,-611.9 -409.6,-66.1 -137.4,-83.6 -137.4,-83.6 0,0 770.6,32.7 783.3,53.1 12.7,20.4 -251.7,642.4 -251.7,642.4"
         style="fill:#9db0f4;fill-opacity:1;fill-rule:nonzero;stroke:none"
         id="path124" />
      <path
         d="m 25074.3,7070.6 c 0,0 7.7,-5.5 22.4,-15 l 0.8,-0.4 c 62.5,-39.9 247.9,-148.6 517.9,-221.6 28.4,-7.6 57.7,-14.9 87.9,-21.6 -2.4,63 -4.9,126.2 -7.4,189 35.7,2.8 69.9,7.3 101.6,14 -1.1,8.3 -2.2,16.6 -3.3,24.9 -34.3,14.1 -68.5,27.7 -101.4,40.6 -26.8,10.4 -52.8,20.4 -77.4,29.7 -110.9,42.1 -193.1,70.6 -193.1,70.6 l -328.3,-104 -19.7,-6.2"
         style="fill:#9db0f4;fill-opacity:1;fill-rule:nonzero;stroke:none"
         id="path126" />
      <path
         d="m 24987.4,7079.7 c 0,0 42.2,-10.5 109.3,-24.1 l 0.7,-0.1 c 123.9,-24.9 332.1,-59.8 518,-57.9 27.5,0.3 54.4,1.3 80.5,3.4 35.7,2.8 69.9,7.3 101.6,14 67.9,14.4 124.9,38.6 162.1,76.6 276.6,281.8 -151,1293.1 -240.9,1391.5 -104.9,114.8 -296.5,155.1 -402.3,169 -4.4,0.5 -8.6,1.1 -12.7,1.6 -37.2,4.4 -61.1,5.4 -62.4,5.4 h -0.1 c 0,0 8.3,-26.7 22.2,-71.9 5.4,-17.5 11.7,-37.8 18.5,-60.4 65,-212.8 190.4,-631 245.6,-866.8 20.3,-86.3 31.1,-148.2 26.2,-166.7 -21.6,-80.5 -245.1,-121.9 -386.7,-140.2 -59.1,-7.7 -103.9,-11.3 -113.9,-12 l -2.1,-0.2 -8.2,-33.6 -19.6,-80.5 -19.3,-79.1 -16.5,-68"
         style="fill:#aec3ff;fill-opacity:1;fill-rule:nonzero;stroke:none"
         id="path128" />
      <path
         d="m 24215.8,6594.9 950.1,40.1 -192.7,1184 -950.1,-40 192.7,-1184.1"
         style="fill:#233862;fill-opacity:1;fill-rule:nonzero;stroke:none"
         id="path130" />
      <path
         d="m 25051,7340.9 c 0,0 -185,12.9 -194.2,-30.2 -21.7,-100.5 159,-183 217.5,-177.4 58.5,5.7 19.3,214.3 -23.3,207.6"
         style="fill:#ffb27d;fill-opacity:1;fill-rule:nonzero;stroke:none"
         id="path132" />
      <path
         d="m 24075,7538.5 c 0,0 177,55.3 196,15.6 44.3,-92.8 -112.4,-214.9 -170.6,-222.9 -58.2,-8.1 -68.3,204 -25.4,207.3"
         style="fill:#ffb27d;fill-opacity:1;fill-rule:nonzero;stroke:none"
         id="path134" />
      <path
         d="m 25222.1,8718.6 c 0,0 87.7,-15.3 126.7,-71.2 0,0 -300.8,-526.8 -299.5,-522.1 1.3,4.7 98.3,528.6 172.8,593.3"
         style="fill:#9db0f4;fill-opacity:1;fill-rule:nonzero;stroke:none"
         id="path136" />
      <path
         d="m 24859.8,8711.4 c -25.6,-9.6 -74.7,-60 -85.8,-87.8 l -34.6,-440.8 c 0,0 73.8,323.5 111.4,469.7 9.6,37.2 7.8,48.5 9,58.9"
         style="fill:#9db0f4;fill-opacity:1;fill-rule:nonzero;stroke:none"
         id="path138" />
      <path
         d="m 24658.2,7805.7 c 0,0 -7.5,32.9 -50.7,29 -43.3,-3.8 -286.2,-15.7 -286.2,-15.7 0,0 -46.9,0.8 -42.5,-29.3 l 379.4,16"
         style="fill:#c65447;fill-opacity:1;fill-rule:nonzero;stroke:none"
         id="path140" />
      <path
         d="m 4732.64,5963.5 c 0,0 -537.26,-308.6 -549.38,-823.7 -12.12,-515 -165.36,-512.1 16.72,-746.9 182.08,-234.9 582.52,-567.6 749.39,-584.3 166.87,-16.7 -216.73,2154.9 -216.73,2154.9"
         style="fill:#ffa49f;fill-opacity:1;fill-rule:nonzero;stroke:none"
         id="path142" />
      <path
         d="M 7222.49,4207.8 C 7021.2,3884.6 6700.86,3633.8 6303.98,3527.5 5477.62,3309.2 4630,3801 4411.7,4627.4 c -68.03,255.1 -68.03,513.1 -9.93,754.1 v 1.4 c 127.58,535.8 538.64,985.1 1108.45,1136.8 826.36,218.3 1673.99,-273.6 1892.28,-1100 113.39,-428 36.86,-863.2 -180.01,-1211.9"
         style="fill:#f9ddc5;fill-opacity:1;fill-rule:nonzero;stroke:none"
         id="path144" />
      <path
         d="m 7222.49,4207.8 c -141.71,-192.8 -539.23,-440.2 -727.15,-484 -1147.42,-267.5 -1918.63,626.1 -2075.96,1343.6 -21.99,100.3 -41.69,192.4 -17.61,314.1 v 1.4 c 127.58,535.8 538.64,985.1 1108.45,1136.8 826.36,218.3 1673.99,-273.6 1892.28,-1100 113.39,-428 36.86,-863.2 -180.01,-1211.9"
         style="fill:#ffeddc;fill-opacity:1;fill-rule:nonzero;stroke:none"
         id="path146" />
      <path
         d="m 5435.09,4898.4 c -125.63,473.7 156.54,959.6 630.24,1085.2 473.71,125.7 959.57,-156.5 1085.2,-630.2 125.63,-473.7 -156.54,-959.6 -630.24,-1085.2 -473.71,-125.6 -959.57,156.5 -1085.2,630.2"
         style="fill:#acd29a;fill-opacity:1;fill-rule:nonzero;stroke:none"
         id="path148" />
      <path
         d="m 5874.96,5024.6 c -74.06,279.3 92.28,565.7 371.53,639.8 279.25,74 565.67,-92.3 639.73,-371.6 74.06,-279.2 -92.28,-565.6 -371.53,-639.7 -279.25,-74 -565.67,92.3 -639.73,371.5"
         style="fill:#060633;fill-opacity:1;fill-rule:nonzero;stroke:none"
         id="path150" />
      <path
         d="m 5812.44,5267.6 c -30.29,114.2 37.76,231.4 151.99,261.7 114.25,30.3 231.42,-37.8 261.72,-152 30.3,-114.3 -37.76,-231.4 -151.99,-261.7 -114.25,-30.3 -231.42,37.7 -261.72,152"
         style="fill:#ffffff;fill-opacity:1;fill-rule:nonzero;stroke:none"
         id="path152" />
      <path
         d="m 16323.1,10116.9 -3815.2,-329.8 -443.2,5125.7 3815.2,329.8 443.2,-5125.7"
         style="fill:#abddda;fill-opacity:1;fill-rule:nonzero;stroke:none"
         id="path154" />
      <path
         d="m 16121.3,10331.2 -3409.6,-294.8 -408.9,4729.6 3409.6,294.8 408.9,-4729.6"
         style="fill:#ffffff;fill-opacity:1;fill-rule:nonzero;stroke:none"
         id="path156" />
      <path
         d="m 13297.9,15019.4 15,-173.6 c 8.3,-95.9 92.7,-166.9 188.5,-158.7 l 931.7,80.6 c 95.8,8.3 166.8,92.7 158.5,188.6 l -15,173.6 -1278.7,-110.5"
         style="fill:#f99746;fill-opacity:1;fill-rule:nonzero;stroke:none"
         id="path158" />
      <path
         d="m 14623.3,10748.8 c -1,-4.3 -1.9,-10.3 -2.3,-17.3 1.3,6.8 2.1,12.8 2.3,17.3 z m 9.6,-83.1 0.1,-0.1 z m -159,-24.2 c -3.4,-9 -3.9,-36.8 3.2,-60.9 5.8,27.6 5.5,51 -3.2,60.9 z m 97.2,-12.7 c 3.2,-7.4 5.6,-8.7 5.6,-8.7 8.4,8.6 17.3,26.4 25.1,46.5 -7.8,-0.4 -16.5,-1.1 -25.9,-2.2 -0.4,-11 -2.1,-23.2 -4.8,-35.6 z m -83,-71.5 c 3.9,-5 8.9,-8.8 15.1,-8.5 12.4,0.5 26,14.9 37.4,39.6 5.9,12.8 10.4,26.4 13.5,39.3 -3.6,9.9 -6,21.7 -7.4,32.6 -17.9,-3 -37.3,-7.1 -57.2,-12.5 12.3,-19.6 9.2,-54.8 -1.4,-90.5 z m -151.7,13.7 c 13.5,-56.2 45.6,-95.6 70.5,-101.1 11.6,-2.5 21.7,2.4 30,14.6 14.1,20.8 25.6,46 33.3,70.3 -3.3,5.8 -6.2,12.7 -8.5,20.6 -5.6,18.4 -8.5,44.1 -5.4,62.2 -25.5,-8.7 -51,-19.7 -74.2,-33.3 -17.9,-10.4 -33.1,-21.5 -45.7,-33.3 z m 194.2,-160.7 c -52.5,-22.2 -104.5,-36 -146.3,-36.1 -63.7,-0.2 -102.2,29.9 -108.3,84.7 -4.9,43.4 9.9,83.1 42.6,117.1 -0.5,3 -1.1,5.9 -1.6,8.9 -5,30.5 -0.2,51.5 14.3,62.3 23.3,17.5 61.8,-0.3 63.5,-1.1 l -7,-14.8 c -8.6,4.1 -34,12.5 -46.8,2.9 -11,-8.3 -10.6,-28.5 -8.2,-44.8 27,23.4 63.2,43.7 108.1,60 33.1,12.2 70.4,21.6 104.4,27.3 -0.2,3.9 -0.2,7.3 0,10.1 0.5,7.7 2.3,16.7 9.6,19.1 2.8,0.9 8.2,1.3 13.7,-5.7 3.5,-4.5 5.7,-11.2 6.7,-19.3 11.7,1.3 22.7,2 32.4,2.2 l 0.2,0.6 c -4,19.1 -4.3,41.9 -2.3,56.8 2.4,19.1 8.4,29.2 17.7,31 5.7,1 10.9,-1.6 13.6,-6.9 6.4,-12.3 -0.5,-47.6 -12.1,-81.9 l 0.1,-0.1 c 13.7,-1.2 23.1,-4.1 26.5,-9.1 2.5,-3.7 3.3,-9.7 -2,-15.5 -10,-10.9 -18.9,-9.2 -23.3,-7.1 -3.8,1.7 -6.9,4.9 -9.6,9.2 -9,-22.4 -19.2,-41.9 -27.9,-50.4 -7.9,-8 -15.7,-5.8 -18.6,-4.4 -1.6,0.7 -3.1,1.7 -4.4,2.9 -3,-9.3 -6.4,-18.4 -10.2,-26.7 -14.4,-31.3 -32.2,-48.3 -51.5,-49 -7.9,-0.3 -15.1,2.2 -21.5,7.4 -8.7,-24 -20.1,-47 -32,-64.5 -12.1,-17.8 -28.7,-25.4 -47,-21.4 -32.4,7.1 -64.8,50.2 -80.2,103.3 -24.6,-28.6 -35,-61 -31,-96.6 5.2,-46.8 36.2,-70.4 92.1,-70.2 140.9,0.4 375,151.8 385.3,249.1 -8.4,-79.2 -117.1,-177.9 -239,-229.3"
         style="fill:#f99746;fill-opacity:1;fill-rule:nonzero;stroke:none"
         id="path160" />
      <path
         d="m 12919.3,12719.6 558.6,48.3 -48.3,558.6 -558.6,-48.3 z m 590.2,21.8 -616.7,-53.4 -53.3,616.7 616.7,53.3 53.3,-616.6"
         style="fill:#abddda;fill-opacity:1;fill-rule:nonzero;stroke:none"
         id="path162" />
      <path
         d="m 13205.7,12840 c -12.9,-1.1 -25.7,3.5 -34.9,12.9 l -210.2,213.7 c -16.9,17.2 -16.7,44.9 0.5,61.9 17.2,16.9 44.9,16.7 61.9,-0.6 l 166.7,-169.5 233.4,481.9 c 10.5,21.7 36.6,30.8 58.4,20.3 21.7,-10.6 30.8,-36.7 20.3,-58.5 l -260.5,-537.6 c -6.2,-12.8 -18.2,-21.8 -32.2,-24.1 -1.1,-0.2 -2.2,-0.3 -3.4,-0.4"
         style="fill:#f99746;fill-opacity:1;fill-rule:nonzero;stroke:none"
         id="path164" />
      <path
         d="m 13002.7,11755.4 558.6,48.3 -48.3,558.6 -558.6,-48.3 z m 590.1,21.8 -616.6,-53.4 -53.3,616.7 616.6,53.3 53.3,-616.6"
         style="fill:#abddda;fill-opacity:1;fill-rule:nonzero;stroke:none"
         id="path166" />
      <path
         d="m 13288.7,11881.1 c -13,-1.1 -25.8,3.6 -35,12.9 l -210.2,213.7 c -16.9,17.2 -16.7,44.9 0.5,61.9 17.2,16.9 44.9,16.7 61.9,-0.5 l 166.7,-169.6 233.4,481.9 c 10.5,21.7 36.7,30.8 58.4,20.3 21.7,-10.6 30.8,-36.7 20.3,-58.5 l -260.5,-537.6 c -6.2,-12.8 -18.2,-21.8 -32.2,-24.1 -1.1,-0.2 -2.2,-0.3 -3.3,-0.4"
         style="fill:#f99746;fill-opacity:1;fill-rule:nonzero;stroke:none"
         id="path168" />
      <path
         d="m 13084.4,10811.2 558.5,48.2 -48.3,558.6 -558.5,-48.3 z m 590.1,21.7 -616.7,-53.3 -53.3,616.7 616.7,53.3 53.3,-616.7"
         style="fill:#abddda;fill-opacity:1;fill-rule:nonzero;stroke:none"
         id="path170" />
      <path
         d="m 13369.5,10945.9 c -12.9,-1.1 -25.8,3.6 -34.9,12.9 l -210.2,213.8 c -17,17.2 -16.7,44.9 0.5,61.8 17.2,16.9 44.9,16.7 61.8,-0.5 l 166.7,-169.5 233.4,481.8 c 10.6,21.7 36.7,30.8 58.4,20.3 21.8,-10.5 30.9,-36.7 20.3,-58.4 l -260.4,-537.7 c -6.2,-12.8 -18.2,-21.8 -32.3,-24.1 -1.1,-0.1 -2.2,-0.3 -3.3,-0.4"
         style="fill:#f99746;fill-opacity:1;fill-rule:nonzero;stroke:none"
         id="path172" />
      <path
         d="m 13889.4,13189.9 -5.2,60.2 804.1,69.5 5.2,-60.2 -804.1,-69.5"
         style="fill:#d5eeec;fill-opacity:1;fill-rule:nonzero;stroke:none"
         id="path174" />
      <path
         d="m 15194,13302.7 -5.2,60.2 182.7,15.8 5.2,-60.2 -182.7,-15.8"
         style="fill:#d5eeec;fill-opacity:1;fill-rule:nonzero;stroke:none"
         id="path176" />
      <path
         d="m 13912.6,12921.2 -5.2,60.2 804.1,69.5 5.2,-60.2 -804.1,-69.5"
         style="fill:#d5eeec;fill-opacity:1;fill-rule:nonzero;stroke:none"
         id="path178" />
      <path
         d="m 15127.5,13026.2 -5.2,60.2 272.5,23.5 5.2,-60.1 -272.5,-23.6"
         style="fill:#d5eeec;fill-opacity:1;fill-rule:nonzero;stroke:none"
         id="path180" />
      <path
         d="m 15164.4,13164.8 -5.2,60.1 224,19.4 5.2,-60.2 -224,-19.3"
         style="fill:#d5eeec;fill-opacity:1;fill-rule:nonzero;stroke:none"
         id="path182" />
      <path
         d="m 14495.1,13106.9 -5.2,60.2 223.9,19.3 5.2,-60.1 -223.9,-19.4"
         style="fill:#d5eeec;fill-opacity:1;fill-rule:nonzero;stroke:none"
         id="path184" />
      <path
         d="m 13901,13055.6 -5.2,60.1 497.6,43 5.2,-60.1 -497.6,-43"
         style="fill:#d5eeec;fill-opacity:1;fill-rule:nonzero;stroke:none"
         id="path186" />
      <path
         d="m 12768.8,13968.6 -7,81.4 1087.6,94 7.1,-81.4 -1087.7,-94"
         style="fill:#d5eeec;fill-opacity:1;fill-rule:nonzero;stroke:none"
         id="path188" />
      <path
         d="m 13976.5,14073 -7.1,81.4 1087.7,94 7,-81.3 -1087.6,-94.1"
         style="fill:#d5eeec;fill-opacity:1;fill-rule:nonzero;stroke:none"
         id="path190" />
      <path
         d="m 12800.2,13605.1 -7,81.4 1087.7,94 7,-81.4 -1087.7,-94"
         style="fill:#d5eeec;fill-opacity:1;fill-rule:nonzero;stroke:none"
         id="path192" />
      <path
         d="m 13588.1,13856.3 -7.1,81.4 303,26.2 7,-81.4 -302.9,-26.2"
         style="fill:#d5eeec;fill-opacity:1;fill-rule:nonzero;stroke:none"
         id="path194" />
      <path
         d="m 12784.5,13786.8 -7,81.4 673.1,58.2 7,-81.4 -673.1,-58.2"
         style="fill:#d5eeec;fill-opacity:1;fill-rule:nonzero;stroke:none"
         id="path196" />
      <path
         d="m 14858.3,13966.1 -7,81.4 302.9,26.2 7,-81.4 -302.9,-26.2"
         style="fill:#d5eeec;fill-opacity:1;fill-rule:nonzero;stroke:none"
         id="path198" />
      <path
         d="m 14054.7,13896.7 -7,81.4 673.1,58.1 7,-81.3 -673.1,-58.2"
         style="fill:#d5eeec;fill-opacity:1;fill-rule:nonzero;stroke:none"
         id="path200" />
      <path
         d="m 13969.5,12263.9 -5.2,60.1 773.4,66.9 5.2,-60.2 -773.4,-66.8"
         style="fill:#d5eeec;fill-opacity:1;fill-rule:nonzero;stroke:none"
         id="path202" />
      <path
         d="m 13992.7,11995.1 -5.2,60.2 804.1,69.5 5.2,-60.1 -804.1,-69.6"
         style="fill:#d5eeec;fill-opacity:1;fill-rule:nonzero;stroke:none"
         id="path204" />
      <path
         d="m 14536.4,12177.5 -5.2,60.2 208.1,18 5.2,-60.2 -208.1,-18"
         style="fill:#d5eeec;fill-opacity:1;fill-rule:nonzero;stroke:none"
         id="path206" />
      <path
         d="m 13981.1,12129.5 -5.2,60.2 497.6,43 5.2,-60.2 -497.6,-43"
         style="fill:#d5eeec;fill-opacity:1;fill-rule:nonzero;stroke:none"
         id="path208" />
      <path
         d="m 14051.8,11311.5 -5.2,60.2 804.1,69.5 5.2,-60.1 -804.1,-69.6"
         style="fill:#d5eeec;fill-opacity:1;fill-rule:nonzero;stroke:none"
         id="path210" />
      <path
         d="m 14075,11042.8 -5.2,60.2 804.1,69.5 5.2,-60.1 -804.1,-69.6"
         style="fill:#d5eeec;fill-opacity:1;fill-rule:nonzero;stroke:none"
         id="path212" />
      <path
         d="m 14618.7,11225.2 -5.2,60.2 349.7,30.2 5.2,-60.2 -349.7,-30.2"
         style="fill:#d5eeec;fill-opacity:1;fill-rule:nonzero;stroke:none"
         id="path214" />
      <path
         d="m 14063.4,11177.2 -5.2,60.2 497.6,43 5.2,-60.2 -497.6,-43"
         style="fill:#d5eeec;fill-opacity:1;fill-rule:nonzero;stroke:none"
         id="path216" />
      <path
         d="m 13511.9,10443.7 -421.9,-36.5 -3.7,42.7 421.9,36.5 3.7,-42.7"
         style="fill:#abddda;fill-opacity:1;fill-rule:nonzero;stroke:none"
         id="path218" />
      <path
         d="m 14031.4,10488.6 -421.8,-36.4 -3.7,42.7 421.8,36.4 3.7,-42.7"
         style="fill:#abddda;fill-opacity:1;fill-rule:nonzero;stroke:none"
         id="path220" />
      <path
         d="m 13683.3,10363.1 -585.1,-50.6 -3.7,42.7 585.1,50.6 3.7,-42.7"
         style="fill:#abddda;fill-opacity:1;fill-rule:nonzero;stroke:none"
         id="path222" />
      <path
         d="m 18528.2,10773.9 16.1,-73.8 c 0,0 15.8,-40.2 34.5,-55.1 18.7,-15 50,-62.7 57.9,-57.7 7.9,5 -4.4,75.4 -4.4,75.4 l -1.8,1.3 c 60.5,10.8 156.4,-74.2 176.9,-67.7 24.8,7.9 3.2,63.1 -7.9,93.5 -11.1,30.5 -54.8,94 -109.2,103.1 -39.9,6.7 -99.5,23.2 -99.5,23.2 l -62.6,-42.2"
         style="fill:#ffb27d;fill-opacity:1;fill-rule:nonzero;stroke:none"
         id="path224" />
      <path
         d="m 17099.8,12069.9 c 216.9,-176.4 739.4,-482.1 742.3,-480.8 0,0 167.4,-100.2 281.6,-51 190.3,82 336.5,369.1 73.2,686.8 -131.3,158.4 -240.2,210.6 -214.6,421.2 27.7,228.2 -75.4,515.1 -338,527.2 -22,1 -155,18.8 -249.9,-11 -241.9,-76 -646.5,-975.6 -294.6,-1092.4"
         style="fill:#233862;fill-opacity:1;fill-rule:nonzero;stroke:none"
         id="path226" />
      <path
         d="m 17499.2,12309.7 -6.2,-571.1 c 0,0 -73.1,-76.9 -174.8,-166.2 -141.3,-124.2 -338.1,-272.5 -470.9,-271.7 -8.6,-0.9 -17.1,-1.3 -25.8,-1.3 h -0.1 c -288.7,0.7 -602.3,464.4 -602.3,464.4 l 34.1,171 c 0,0 453.6,-291.8 510.8,-295.2 83.9,-5 355.1,411 404,492.3 68.1,113.3 331.2,177.8 331.2,177.8"
         style="fill:#aec3ff;fill-opacity:1;fill-rule:nonzero;stroke:none"
         id="path228" />
      <path
         d="m 17318.2,11572.4 c -141.3,-124.2 -338.1,-272.5 -470.9,-271.7 -8.6,-0.9 -17.1,-1.3 -25.8,-1.3 228.3,26.3 404.6,492.7 404.6,492.7 l 92.1,-219.7"
         style="fill:#9db0f4;fill-opacity:1;fill-rule:nonzero;stroke:none"
         id="path230" />
      <path
         d="m 17135.4,9073 c 14.7,-16.8 16.5,-35.7 9.3,-55.8 l -0.2,-0.2 c -13.4,-37.2 -57.9,-78.8 -109.6,-120.3 -6.6,-5.3 -12.4,-10.1 -17.6,-14.6 -1.3,-1.2 -2.7,-2.4 -3.9,-3.6 -1.1,-0.9 -2.1,-1.8 -3.1,-2.7 -48.1,-44.4 -30,-54.6 -116.5,-144.7 -98.7,-102.7 -166.7,-104.5 -186,-95.2 -16.4,8 16.9,62.4 53.7,123.7 1.8,2.9 3.5,5.9 5.3,8.9 4.9,8.1 9.8,16.4 14.7,24.5 43.1,73.7 32,108.3 21.8,217.9 -8.3,89.1 -138.6,497.7 -138.6,497.7 l 189.1,32.6 c 0,0 57,-325.4 119.7,-375.5 33.6,-26.7 71.2,-27 103.4,-46.8 2.3,-1.4 4.5,-2.8 6.7,-4.3 18.3,-12.1 37,-24.7 51.8,-41.6"
         style="fill:#ffb27d;fill-opacity:1;fill-rule:nonzero;stroke:none"
         id="path232" />
      <path
         d="m 17135.4,9073 c 14.7,-16.8 16.5,-35.7 9.3,-55.8 l -0.2,-0.2 c -16.5,-37.2 -59.8,-78.5 -109.8,-119.9 -6.5,-5.4 -12.2,-10.4 -17.4,-15 -1.3,-1.2 -2.7,-2.4 -3.9,-3.6 -1.1,-0.9 -2.1,-1.8 -3.1,-2.7 -48.1,-44.4 -30,-54.6 -116.5,-144.7 -98.7,-102.7 -166.7,-104.5 -186,-95.2 -16.4,8 16.9,62.4 53.7,123.7 19.2,7 108.4,43.2 175.9,129.6 59.4,75.8 99,173.2 139.5,229.7 2.3,-1.4 4.5,-2.8 6.7,-4.3 18.3,-12.1 37,-24.7 51.8,-41.6"
         style="fill:#233862;fill-opacity:1;fill-rule:nonzero;stroke:none"
         id="path234" />
      <path
         d="m 15610.4,9191.2 c -11.7,-58.4 -94.9,-48.7 -187.8,-26 -93,22.7 -70.9,-4.3 -203.2,10.4 -132.3,14.6 -172.4,64 -176.5,83.6 -3.6,17.5 61.8,23.7 131.9,31.7 8.9,1 17.7,2.1 26.6,3.2 79.1,9.9 137.1,61 209,103 68.2,39.7 169.8,201.6 169.8,201.6 l 181.5,-14.3 c 0,0 -95.2,-144.6 -132.1,-207.5 -21.6,-37 -20.5,-85.9 -17.8,-123.7 1.4,-20.5 2.8,-41.5 -1.4,-62"
         style="fill:#ffb27d;fill-opacity:1;fill-rule:nonzero;stroke:none"
         id="path236" />
      <path
         d="m 15422.6,9165.2 c -93,22.7 -70.9,-4.3 -203.2,10.4 -132.3,14.6 -172.4,64 -176.5,83.6 -3.6,17.5 61.8,23.7 131.9,31.7 l 0.7,-1.3 c 0,0 79.3,-56.3 189.5,-58.9 89.7,-2.2 184.8,23.5 246.8,22.5 1.4,-20.5 2.8,-41.5 -1.4,-62 -11.7,-58.4 -94.9,-48.7 -187.8,-26"
         style="fill:#233862;fill-opacity:1;fill-rule:nonzero;stroke:none"
         id="path238" />
      <path
         d="m 16305.8,10351.4 169.6,-456.4 221.5,-596 c 0,0 60.1,-5.8 117.6,10.7 53,15.3 113.8,55.4 113.8,55.4 0,0 -61.5,639.9 -176.2,1007.3 -29.4,94.3 -62.3,170.5 -98.7,213.5 -177.8,210.1 -347.6,-234.5 -347.6,-234.5"
         style="fill:#233862;fill-opacity:1;fill-rule:nonzero;stroke:none"
         id="path240" />
      <path
         d="m 16478.3,11076.3 c 111.1,35.8 428,-10.2 746.4,-72.5 l 66.7,110 687.7,53.7 c 0,0 138.3,-323.3 14,-644 -18.2,-47.1 34.1,-257.3 -27.7,-258.3 h -10 c 0,0 -409.4,0.2 -542.3,0.2 -342,0 -723.8,235.1 -773.2,245 -80.8,16.2 -113.1,-145.5 -194,-315.3 -80.8,-169.7 -759.9,-751.8 -759.9,-751.8 0,0 -104.4,-1 -147.5,15.1 -46.3,17.4 -63.3,40 -63.3,40 0,0 752.4,1497 1003.1,1577.9"
         style="fill:#2b478b;fill-opacity:1;fill-rule:nonzero;stroke:none"
         id="path242" />
      <path
         d="m 16475.4,9895 221.5,-596 c 0,0 60.1,-5.8 117.6,10.7 53,15.3 113.8,55.4 113.8,55.4 0,0 -61.5,639.9 -176.2,1007.3 L 16475.4,9895"
         style="fill:#2b478b;fill-opacity:1;fill-rule:nonzero;stroke:none"
         id="path244" />
      <path
         d="m 18150.6,11150.9 c -12.9,-460.4 -147.8,-947.3 -147.8,-947.3 -169.7,15.2 -332.5,99.7 -476.9,209.9 -330.1,251.7 -563.9,637.4 -563.9,637.4 226.5,17.5 257.3,124.7 259.9,170.9 -3.3,83.1 -38.2,285.5 -41.7,516.8 -5,336.4 319,571 319,571 0,0 23.2,-143.7 311.3,27.4 10.2,5.9 123.7,-162.1 232.9,-368.9 52.9,-100.5 80.3,-430 80.3,-430 24,-118 30.7,-251.5 26.9,-387.2"
         style="fill:#aec3ff;fill-opacity:1;fill-rule:nonzero;stroke:none"
         id="path246" />
      <path
         d="m 17811.1,12336.6 c 1.2,-0.2 -106.1,-98.9 -184.7,-127.5 -30.7,-11.2 -81.8,-23.5 -81.8,-23.5 l -41.7,42.1 c -36.4,34 0.2,43.8 -5.3,108.2 -0.3,3 -0.5,6.2 -0.9,9.3 -7.3,72 -28.2,150.9 -29.5,156 l -0.1,0.2 254.6,72.8 -8.3,-14 c 15.7,-132.1 63.2,-219.8 97.7,-223.6"
         style="fill:#ffb27d;fill-opacity:1;fill-rule:nonzero;stroke:none"
         id="path248" />
      <path
         d="m 17721.7,12574.2 c -24.7,-74 -92.1,-173.2 -229.4,-194.6 -13.2,79.4 -23.8,116.5 -25.1,121.6 l -0.1,0.2 254.6,72.8"
         style="fill:#ed975d;fill-opacity:1;fill-rule:nonzero;stroke:none"
         id="path250" />
      <path
         d="m 17424.8,12424.8 c 0,0 343.1,22.8 325.6,236.2 -17.5,213.4 15,360.1 -204.8,354.6 -219.8,-5.5 -255.6,-90.5 -267.1,-163.1 -11.5,-72.7 56.6,-428.1 146.3,-427.7"
         style="fill:#ffb27d;fill-opacity:1;fill-rule:nonzero;stroke:none"
         id="path252" />
      <path
         d="m 17363.1,13019.4 c 0,0 85.3,-250.1 287.7,-279.2 147.6,-21.2 206.2,18.7 206.2,18.7 0,0 -82.4,78.3 -127,198.8 -13.2,35.5 -44.3,61.3 -81.7,67.1 -105.1,16.2 -240.8,85.8 -285.2,-5.4"
         style="fill:#233862;fill-opacity:1;fill-rule:nonzero;stroke:none"
         id="path254" />
      <path
         d="m 17435.8,12975.1 c 0,0 -61.2,-24.7 -103.9,-116.2 -23.4,-49.9 -40.3,-169 -25.9,-218 0,0 -98.6,228.2 -27.2,331.1 75.8,109 157,3.1 157,3.1"
         style="fill:#233862;fill-opacity:1;fill-rule:nonzero;stroke:none"
         id="path256" />
      <path
         d="m 17497.6,12335.9 c 0,0 21,-126.7 47,-150.3 0,0 -65.8,24.3 -97.1,109.3 0,0 23.1,38.1 50.1,41"
         style="fill:#9db0f4;fill-opacity:1;fill-rule:nonzero;stroke:none"
         id="path258" />
      <path
         d="m 17810.5,12336.9 c 0,0 272.8,-17.4 340.2,-123.9 187.2,-295.9 211,-592.1 295.6,-873.1 67,-223 156.3,-527 156.3,-527 0,0 -17.1,-35.6 -63.1,-49.4 -36.4,-10.9 -71.6,-9.6 -71.6,-9.6 0,0 -430.1,585.6 -457.5,651.7 -100.9,244.1 -199.9,931.3 -199.9,931.3"
         style="fill:#aec3ff;fill-opacity:1;fill-rule:nonzero;stroke:none"
         id="path260" />
      <path
         d="m 17757.6,12395.3 c 0,0 -150.7,-189.6 -213,-209.7 0,0 177.1,0 302.1,147.8 0,0 -41.8,61.3 -89.1,61.9"
         style="fill:#9db0f4;fill-opacity:1;fill-rule:nonzero;stroke:none"
         id="path262" />
      <path
         d="m 18150.6,11150.9 c -12.9,-460.4 -147.8,-947.3 -147.8,-947.3 -169.7,15.2 -332.5,99.7 -476.9,209.9 82.7,205.1 405.1,430.4 438.7,540.7 45.9,150.4 -66.6,555.2 -26.3,591.6 40.2,36.4 198,-342.8 198,-342.8 l 14.3,-52.1"
         style="fill:#9db0f4;fill-opacity:1;fill-rule:nonzero;stroke:none"
         id="path264" />
      <path
         d="m 16219.1,11987.1 c 0,0 -26.4,61.9 -114.6,87.8 -88.2,26 -115.9,58.8 -110.7,29.4 5.2,-29.4 76.1,-64 96.8,-107.2 20.8,-43.3 69.2,-90 107.3,-98.6 38,-8.7 21.2,88.6 21.2,88.6"
         style="fill:#ffb27d;fill-opacity:1;fill-rule:nonzero;stroke:none"
         id="path266" />
      <path
         d="m 10029.3,6954.5 c -49.75,159.7 -266.05,189.7 -353.08,46.8 -15.65,-25.7 -25.56,-55.2 -26.42,-89 -4.8,-187.3 364.5,-912.2 413.6,-976.3 89.2,-116.7 627.9,-397.4 627.9,-397.4 l 114.5,16.7 c 0,0 -64.7,40.6 -131.7,107.5 -138.5,138.2 -340.2,362.9 -377.2,394 -63.4,53.4 -173.2,594.5 -267.6,897.7"
         style="fill:#ed985f;fill-opacity:1;fill-rule:nonzero;stroke:none"
         id="path268" />
      <path
         d="m 10185.6,7870.7 c 3,12 -261.27,-119.4 -274.67,-134.3 -123.96,-137.5 -88.62,-316.9 -17.69,-318.7 45.5,-1.1 36.68,-76.7 36.68,-76.7 l 506.78,214.4 c 0,0 -61,355.8 -251.1,315.3"
         style="fill:#233862;fill-opacity:1;fill-rule:nonzero;stroke:none"
         id="path270" />
      <path
         d="m 10248,7843 c 0,0 18.2,197.4 -202.4,197.4 0,0 66.8,-18.2 101.4,-54.4 0,0 -140.7,82.6 -293.79,-44.3 -153.1,-126.9 -57.97,-445.2 -104.53,-505.7 -46.56,-60.4 -227.86,-72.5 -205.7,-267.9 22.16,-195.4 575.42,-440.1 539.92,-601.8 0,0 216.8,318.7 61.7,464.1 0,0 75.6,-71.1 83.3,-155.7 0,0 20.5,165.1 -84.6,218 -93,46.7 -169.22,217.7 -161.16,248.3 8.06,30.6 265.86,502 265.86,502"
         style="fill:#233862;fill-opacity:1;fill-rule:nonzero;stroke:none"
         id="path272" />
      <path
         d="m 9628.47,3574.3 -109.67,16.1 c 0,0 -368.73,293 -423.64,839.8 -5.6,55.6 -6.77,112.1 -2.62,169 0.48,6.6 -0.24,13.2 -3.83,18.7 l -0.12,0.1 c -11.8,18.1 -41.17,63.5 -80.94,127.9 -39.2,63.5 -106.28,183.6 -180.1,318.3 -132.95,242.6 -287.75,532.8 -340.85,625.2 -169.17,294.6 -87.63,492.7 -87.63,492.7 0,0 471.96,46.6 601.29,159.7 l 46.57,-71.8 c 0,0 102.26,-452.6 97.43,-454.7 5.03,-15.4 10.15,-31.1 15.34,-47.1 80.7,-249 173.53,-560.3 224.13,-813.9 28.45,-142.7 43.52,-267 35.42,-351.6 -2.78,-29.1 0.6,-73.7 8.34,-128.9 45.69,-324.8 200.88,-899.5 200.88,-899.5"
         style="fill:#2b478b;fill-opacity:1;fill-rule:nonzero;stroke:none"
         id="path274" />
      <path
         d="m 9858.51,3435.5 h -457.53 c 0,0 -10.97,69.7 12.94,122.6 22.89,50.8 55.53,52.4 4.16,132 29.07,-29.9 122.53,-42.3 188.68,-33.4 8.1,-13.2 52.25,-101.3 79.32,-120.8 29.9,-21.4 163.22,-13.8 172.43,-100.4"
         style="fill:#233862;fill-opacity:1;fill-rule:nonzero;stroke:none"
         id="path276" />
      <path
         d="m 9159.7,5768.2 c -39.96,-220.4 -134.36,-587.2 -332.15,-704 -132.95,242.6 -287.75,532.8 -340.85,625.2 -169.17,294.6 -87.63,492.7 -87.63,492.7 0,0 471.96,46.6 601.29,159.7 l 46.57,-71.8 c 0,0 102.26,-452.6 97.43,-454.7 5.03,-15.4 10.15,-31.1 15.34,-47.1"
         style="fill:#233862;fill-opacity:1;fill-rule:nonzero;stroke:none"
         id="path278" />
      <path
         d="m 8838.82,6148 1.55,85.6 c -170.49,-21.5 -587.87,203.7 -587.87,203.7 0,0 -178.36,-118.6 -202.78,-457.4 -11.91,-165.4 -87.31,-864.7 -95.65,-1073.5 -3.04,-75.7 -4.05,-129.7 -4.4,-151.3 l 0.03,-0.2 c -0.11,-6.6 -3.2,-12.4 -7.25,-17.6 -35.28,-44.9 -65.88,-92.4 -92.38,-141.7 -260.16,-484 -124.11,-1141.7 -124.11,-1141.7 l 60.41,15.4 c 0,0 219.98,681.8 363.75,976.7 24.4,50 46.57,88.9 65.11,111.5 54.06,65.6 111.06,177.1 167.25,311.3 106.2,253.7 209.31,588.5 282.85,847.7 5.18,-1 173.49,431.5 173.49,431.5"
         style="fill:#2b478b;fill-opacity:1;fill-rule:nonzero;stroke:none"
         id="path280" />
      <path
         d="m 9836.53,6719.1 c -278.71,64 -100.65,455.7 -84.5,448.8 38.62,7.8 123.43,75.6 199.31,208.1 l 10.25,-8.9 171.21,-150.1 c 0,0 -22.6,-58.2 -72.9,-115.6 -34.1,-38.9 -118.91,-76.2 -115.39,-91.3 13.78,-10.9 -33.63,-308 -107.98,-291"
         style="fill:#ffb27d;fill-opacity:1;fill-rule:nonzero;stroke:none"
         id="path282" />
      <path
         d="m 10012.5,7010.1 c 0,0 49,-96.7 75.2,-180.5 26.1,-83.8 91.5,-350.2 91.5,-350.2 0,0 -134.9,-154 -322.57,-145 0,0 -100.91,158 -65.35,300.6 35.56,142.7 221.22,375.1 221.22,375.1"
         style="fill:#9db0f4;fill-opacity:1;fill-rule:nonzero;stroke:none"
         id="path284" />
      <path
         d="m 10132.8,7217 c 0,0 -13.6,-51.1 -72.9,-115.6 -87.84,116.4 -106.54,197.4 -98.34,265.6 l 171.24,-150"
         style="fill:#ed985f;fill-opacity:1;fill-rule:nonzero;stroke:none"
         id="path286" />
      <path
         d="m 10137.5,7141.8 c 0,0 -258.41,143.8 -166.38,303.3 91.98,159.6 120.68,285.6 289.58,200.5 168.8,-85 165.5,-164.2 147.7,-225 -17.7,-60.7 -201.3,-312.1 -270.9,-278.8"
         style="fill:#ffb27d;fill-opacity:1;fill-rule:nonzero;stroke:none"
         id="path288" />
      <path
         d="m 10452.1,7513.7 c -11.8,70.8 -47.8,77.6 -72.9,72.9 -95.5,157.8 -251.4,96.2 -251.4,96.2 -83.3,-104.5 -203.66,-122.3 -203.66,-122.3 0,0 29.99,-55.8 153.56,-90.4 37.7,-10.5 80.6,-4.1 121.9,9.8 -85.7,-47.8 -175.4,-66.1 -175.4,-66.1 162.8,-14.9 317.8,133.9 333.8,149.8 7.5,-23 20.7,-71.3 12.8,-106.6 -10.7,-48 -53.3,-134.9 -27.3,-146.2 0,0 126.3,96.7 108.6,202.9"
         style="fill:#233862;fill-opacity:1;fill-rule:nonzero;stroke:none"
         id="path290" />
      <path
         d="m 8089.79,3435.5 h -457.53 c 0,0 -10.96,69.7 12.94,122.6 22.9,50.8 58.76,73.9 50.17,135.3 29.07,-29.9 76.46,-63.5 142.6,-54.6 8.11,-13.1 52.32,-83.4 79.39,-102.9 29.9,-21.4 163.23,-13.8 172.43,-100.4"
         style="fill:#233862;fill-opacity:1;fill-rule:nonzero;stroke:none"
         id="path292" />
      <path
         d="m 9869.34,6408.6 c -58.88,-20.5 -141.48,-31.8 -226,-40.9 -120.31,-13.2 -244.54,-22.1 -309.59,-48.1 -12.71,-5.1 -49.72,-20.5 -86.8,-47.4 v -0.1 c 0,0 -0.91,-0.5 -2.55,-1.9 -12.29,-8.9 -24.58,-19.3 -35.87,-31 -17.26,-17.7 -32.31,-38.4 -41.97,-62.2 -23.87,-59 7.74,-222.4 27.98,-311.8 8.17,-35.9 -8.81,-73.1 -41.55,-90 -45.74,-23.7 -90.7,-45.6 -134.87,-65.5 -2.35,-1.1 -4.62,-2.1 -6.96,-3.1 0.42,9.1 0.56,18.1 0.56,26.9 0.08,61.6 -7.74,112.9 -7.74,112.9 -10.86,-62.2 -51.85,-129.4 -90.05,-181.1 -614.01,-246.4 -1043,-139.3 -1035.97,-16.6 24.23,426.2 311.59,788.6 311.59,788.6 535.95,623.3 1620.06,787.3 1620.06,787.3 0,0 51.92,6.3 114.56,-69 90.13,-108.5 94.63,-136.7 94.63,-136.7 0,0 23.8,-549.8 -149.46,-610.3"
         style="fill:#aec3ff;fill-opacity:1;fill-rule:nonzero;stroke:none"
         id="path294" />
      <path
         d="m 9643.3,6367.7 c -120.31,-13.2 -244.52,-22.2 -309.58,-48.1 -26.6,397.3 160.91,696.2 160.91,696.2 0,0 122.32,-497.8 148.67,-648.1"
         style="fill:#9db0f4;fill-opacity:1;fill-rule:nonzero;stroke:none"
         id="path296" />
      <path
         d="m 9194.54,5865.2 c 8.17,-35.9 -8.81,-73.1 -41.55,-90 -45.74,-23.7 -90.7,-45.6 -134.87,-65.5 -2.35,7.5 -4.48,15.4 -6.4,23.8 -6.95,31.1 -10.15,68.3 -7.74,112.9 10.23,188.6 138.71,331.5 204.55,392.8 -17.26,-17.7 -32.31,-38.4 -41.97,-62.2 -23.87,-59 7.74,-222.4 27.98,-311.8"
         style="fill:#9db0f4;fill-opacity:1;fill-rule:nonzero;stroke:none"
         id="path298" />
      <path
         d="m 9809.61,7224.6 c 0,0 47.2,59.7 79.11,57.8 0,0 128.98,-180.6 130.08,-263.5 0,0 -160.95,214.1 -209.19,205.7"
         style="fill:#9db0f4;fill-opacity:1;fill-rule:nonzero;stroke:none"
         id="path300" />
      <path
         d="m 11047.4,5476.8 c 0,0 -68.6,-1.2 -83.4,0.9 -14.5,2.1 -34,8.4 -53.5,9.1 -19.2,0.7 -36.9,-5.5 -54.9,-9.2 -2.7,-0.6 -5.4,-0.8 -8.2,-0.8 h -113.8 c 0,0 -11.4,5.5 -23.9,25.5 -5.4,8.7 -6.1,29.4 -18.4,36.3 -68.9,38.4 114.5,16.7 114.5,16.7 0,0 115.1,2.1 125.7,-5.9 19,-14.2 120.2,-67.1 115.9,-72.6"
         style="fill:#ed985f;fill-opacity:1;fill-rule:nonzero;stroke:none"
         id="path302" />
      <path
         d="m 10733.6,5476.8 c 0,0 69.9,-20.2 88.9,-33.1 l 20,-12.7 c 0,0 11.6,13 -6.7,27.3 -9.6,7.6 -36.2,29.8 -37.1,55.3 -0.8,25.4 -79.7,3.2 -65.1,-36.8"
         style="fill:#ed985f;fill-opacity:1;fill-rule:nonzero;stroke:none"
         id="path304" />
      <path
         d="m 11819.3,3538.8 v 0 c -164.5,0 -297.8,133.4 -297.8,297.8 v 1880.9 h 595.6 V 3836.6 c 0,-164.4 -133.3,-297.8 -297.8,-297.8"
         style="fill:#ffeddc;fill-opacity:1;fill-rule:nonzero;stroke:none"
         id="path306" />
      <path
         d="m 11819.3,3625.2 v 0 c -122.2,0 -221.3,99.1 -221.3,221.3 v 669 h 442.6 v -669 c 0,-122.2 -99.1,-221.3 -221.3,-221.3"
         style="fill:#d14842;fill-opacity:1;fill-rule:nonzero;stroke:none"
         id="path308" />
      <path
         d="m 10485.1,4924.7 v 0 c -151.5,63.9 -222.5,238.6 -158.6,390.2 l 731.4,1732.9 548.7,-231.6 -731.3,-1732.9 c -64,-151.6 -238.6,-222.6 -390.2,-158.6"
         style="fill:#ffeddc;fill-opacity:1;fill-rule:nonzero;stroke:none"
         id="path310" />
      <path
         d="m 10539.7,4995.4 -42,17.7 c -101,42.7 -148.3,159.1 -105.7,260.1 l 527.6,1250.2 475.6,-11.5 -595.5,-1410.8 c -42.6,-101 -159,-148.3 -260,-105.7"
         style="fill:#d14842;fill-opacity:1;fill-rule:nonzero;stroke:none"
         id="path312" />
      <path
         d="m 10429.1,5272.1 c 0,0 49.9,-44.4 87.9,-53.8 38,-9.3 81.1,-118.1 88,-133.6 6.9,-15.5 -36.2,6.9 -53.5,33.4 -17.2,26.4 -29,36.8 -34.1,31 -5,-5.7 3.1,-78.2 31.8,-118.5 28.8,-40.2 46,-75.9 25.3,-73.6 -20.7,2.3 -143.8,32.2 -169.1,107 -25.3,74.8 -6.7,77.4 -64.9,154.3 -58.2,77 88.6,53.8 88.6,53.8"
         style="fill:#ffb27d;fill-opacity:1;fill-rule:nonzero;stroke:none"
         id="path314" />
      <path
         d="m 9769.65,7092.7 c 0,0 -301.52,-29.8 -325.69,-225.7 -24.17,-195.9 289.08,-993.9 333.94,-1066.2 81.67,-131.6 562.6,-582.5 562.6,-582.5 l 88.6,53.8 c 0,0 -341.1,577.4 -393.9,631.5 -82.93,84.8 -163.45,1121.2 -265.55,1189.1"
         style="fill:#ffb27d;fill-opacity:1;fill-rule:nonzero;stroke:none"
         id="path316" />
      <path
         d="m 9924.14,6718.4 c 0,0 30.97,505.1 -355.67,383 -386.65,-122.1 60,-991 60,-991 0,0 226.93,11.2 307.41,209.2 l -11.74,398.8"
         style="fill:#aec3ff;fill-opacity:1;fill-rule:nonzero;stroke:none"
         id="path318" />
      <path
         d="m 12392.2,3712 h -1841.8 v 83.7 h 1841.8 V 3712"
         style="fill:#aec3ff;fill-opacity:1;fill-rule:nonzero;stroke:none"
         id="path320" />
      <path
         d="m 10677,3732.6 h -126.6 v -269 h 126.6 v 269"
         style="fill:#aec3ff;fill-opacity:1;fill-rule:nonzero;stroke:none"
         id="path322" />
      <path
         d="M 12392.2,3795.7 H 12248 v -332.1 h 144.2 v 332.1"
         style="fill:#aec3ff;fill-opacity:1;fill-rule:nonzero;stroke:none"
         id="path324" />
      <path
         d="m 22484.8,13287.7 c 0,0 22.4,451.4 -67.5,503.3 -89.9,51.9 -325.1,58.8 -325.1,-41.5 0,-100.3 159.1,-103.8 217.9,-276.7 58.8,-173 134.9,-266.4 174.7,-185.1"
         style="fill:#c7eae6;fill-opacity:1;fill-rule:nonzero;stroke:none"
         id="path326" />
      <path
         d="m 6245.93,8184.3 c -74.61,0 -227.87,71.7 -312.93,163.8 -124.52,134.9 -423.73,164.3 -430.65,282 -4.64,78.8 65.32,126.5 187.99,126.5 60.34,0 133.44,-11.5 216.68,-36.6 252.48,-76.1 377.31,-484.3 377.31,-484.3 13.91,-36 -3.77,-51.4 -38.4,-51.4"
         style="fill:#ed7671;fill-opacity:1;fill-rule:nonzero;stroke:none"
         id="path328" />
      <path
         d="M 28304.7,3412.2 H 1571.85 c -15.77,0 -28.67,12.9 -28.67,28.7 v 6.1 c 0,15.7 12.9,28.6 28.67,28.6 H 28304.7 c 15.8,0 28.7,-12.9 28.7,-28.6 v -6.1 c 0,-15.8 -12.9,-28.7 -28.7,-28.7"
         style="fill:#2e3552;fill-opacity:1;fill-rule:nonzero;stroke:none"
         id="path330" />
    </g>
  </g>
</svg>
